<svg xmlns="http://www.w3.org/2000/svg" xmlns:xlink="http://www.w3.org/1999/xlink" viewBox="0,0,256,256" width="25px" height="25px"><g fill="#ffffff" fill-rule="nonzero" stroke="none" stroke-width="1" stroke-linecap="butt" stroke-linejoin="miter" stroke-miterlimit="10" stroke-dasharray="" stroke-dashoffset="0" font-family="none" font-weight="none" font-size="none" text-anchor="none" style="mix-blend-mode: normal"><g transform="scale(5.12,5.12)"><path d="M29.05859,47.27344l-1.28516,-0.30078c-0.49609,-0.11328 -1.96484,-0.41406 -2.77344,-0.41406c-0.8125,0 -2.29297,0.30078 -2.79687,0.41797l-1.28516,0.29297l0.88281,-18.53516l-15.39453,-26.1875l2.22266,0.47656c0.01563,0 1.46484,0.30859 2.55469,0.30859c1.09375,0 2.53906,-0.30469 2.55469,-0.30859l0.70703,-0.15234l10.58203,18.10938l10.69531,-18.20312l0.78125,0.28125c0.00781,0.00391 1.08203,0.38281 2.3125,0.38281c1.33594,0 2.41406,-0.37891 2.42188,-0.38281l2.58984,-0.92187l-15.58203,26.59766zM10.33984,5.29297l13.48828,22.94141l-0.78906,16.53516c0.63281,-0.10937 1.38281,-0.21094 1.96094,-0.21094c0.57422,0 1.31641,0.10156 1.94531,0.21094l-0.72266,-16.53516l13.37109,-22.82422c-0.24609,0.01953 -0.50781,0.03125 -0.77734,0.03125c-0.85156,0 -1.63281,-0.13672 -2.18359,-0.26953l-11.61328,19.76563l-11.58203,-19.82422c-0.59766,0.09766 -1.47656,0.21875 -2.25391,0.21875c-0.27344,0 -0.55859,-0.01562 -0.84375,-0.03906z"></path></g></g></svg>